<?xml version="1.0" standalone="no"?>
<!DOCTYPE svg PUBLIC "-//W3C//DTD SVG 20010904//EN"
 "http://www.w3.org/TR/2001/REC-SVG-20010904/DTD/svg10.dtd">
<svg version="1.0" xmlns="http://www.w3.org/2000/svg"
 width="512.000000pt" height="512.000000pt" viewBox="0 0 512.000000 512.000000"
 preserveAspectRatio="xMidYMid meet">

<g transform="translate(0.000000,512.000000) scale(0.100000,-0.100000)"
fill="#000000" stroke="none">
<path d="M2125 5106 c-510 -85 -897 -438 -1022 -931 -34 -137 -42 -351 -19
-488 76 -449 374 -809 798 -967 163 -60 421 -87 598 -61 736 108 1214 839
1014 1553 -126 450 -489 788 -949 883 -108 22 -319 28 -420 11z m753 -1743
c-56 -130 -207 -235 -401 -278 -95 -21 -299 -16 -392 9 -101 27 -205 84 -266
146 -47 46 -99 123 -99 145 0 3 263 5 585 5 l585 0 -12 -27z"/>
<path d="M1170 2535 c-231 -50 -437 -162 -605 -330 -181 -181 -294 -403 -337
-659 -13 -79 -18 -595 -5 -638 16 -57 63 -95 170 -137 482 -188 1401 -289
2272 -251 276 12 551 33 561 42 3 4 0 17 -8 30 -9 16 -13 67 -13 178 0 173 5
192 73 263 63 65 113 77 332 77 l190 0 0 198 c0 185 2 200 24 247 27 59 88
117 142 136 26 9 86 14 179 14 117 0 146 -3 174 -18 l34 -19 -7 28 c-28 108
-119 289 -198 392 -114 148 -314 305 -471 371 -101 42 -236 79 -310 87 -62 5
-62 5 -142 -46 -271 -174 -554 -266 -862 -277 -346 -13 -681 81 -977 275 -87
58 -104 60 -216 37z"/>
<path d="M4033 1533 c-13 -2 -32 -16 -43 -30 -19 -24 -20 -40 -20 -294 l0
-268 -275 -3 c-337 -4 -318 5 -323 -149 -4 -116 0 -141 30 -169 21 -19 34 -20
295 -20 l273 0 0 -272 c1 -199 4 -277 13 -289 24 -31 56 -39 162 -39 104 0
107 1 136 29 l29 29 0 271 0 271 273 0 274 0 23 25 c21 22 25 38 28 119 3 57
0 108 -8 130 -20 63 -35 66 -330 66 l-260 0 0 260 c0 290 -4 309 -61 329 -31
10 -169 13 -216 4z"/>
</g>
</svg>
