<svg id="Capa_1" enable-background="new 0 0 511.79 511.79" height="512" viewBox="0 0 511.79 511.79" width="512" xmlns="http://www.w3.org/2000/svg"><g><g><g><path d="m312.22 511.79h-138.79l-22.707-44.68 22.707-46.13 18.654-37.509h61.788l15.738 37.509 17.964 42.661z" fill="#323c3c"/><path d="m173.43 420.98v90.81h-173.32v-90.81l21.932-37.509h131.234z" fill="#3f4a4a"/></g><g><path d="m325.54 152.31-10.392 8.523-7.998 55.397-16.002 37.028h-99.574l-18.144-37.028-22.707-63.92 22.707-88.39 12.016-18.218h39.83l10.974 18.218v29.4c0 20.628 16.722 37.35 37.35 37.35 20.31 0 38.69 8.28 51.94 21.64z" fill="#323c3c"/><path d="m173.43 63.92v152.31l-25.771 37.028h-126.128l-21.421-37.028v-12.4c0-40.4 32.75-73.16 73.16-73.16 20.628 0 37.35-16.722 37.35-37.35v-29.4l15.74-18.218h36.107z" fill="#3f4a4a"/></g><g><path d="m337.51 216.23-6.864-14.714h-12.766l-10.73 14.714h-133.72l-22.707 93.834 22.707 110.916h96.18l24.091-56.97 60.256-105.645z" fill="#cee1e4"/><path d="m.11 216.23h173.32v204.75h-173.32z" fill="#f1f6f7"/></g><g><path d="m267.58 0v63.92h-94.15l-15.558-35.343 15.558-28.577z" fill="#cee1e4"/><path d="m79.29 0h94.14v63.92h-94.14z" fill="#f1f6f7"/></g></g><g><g><path d="m511.68 325.29v186.5h-121.04l-36.683-147.358 36.683-148.202 11.827-22.206h33.362l7.941 22.206v41.16c0 14.547 11.793 26.34 26.34 26.34h.01c22.953 0 41.56 18.607 41.56 41.56z" fill="#4894ff"/><g><path d="m390.64 216.23v295.56h-121.03v-186.5c0-22.953 18.607-41.56 41.56-41.56 14.547 0 26.34-11.793 26.34-26.34v-41.16l12.872-22.206h30.979z" fill="#8bbbff"/></g></g><g><path d="m474.13 152.31v63.92h-83.49l-13.364-31.96 13.364-31.96z" fill="#cee1e4"/><path d="m307.15 152.31h83.49v63.92h-83.49z" fill="#f1f6f7"/></g></g></g></svg>