<svg id="Capa_1" enable-background="new 0 0 506.386 506.386" height="512" viewBox="0 0 506.386 506.386" width="512" xmlns="http://www.w3.org/2000/svg"><g><g><g><path d="m459.203 498.528h-151.62c-21.868 0-39.761-17.892-39.761-39.76v-151.621c0-21.868 17.892-39.761 39.761-39.761h151.621c21.868 0 39.76 17.892 39.76 39.761v151.621c0 21.867-17.892 39.76-39.761 39.76z" fill="#0396fd"/></g><g><path d="m198.802 498.528h-151.621c-21.868 0-39.761-17.892-39.761-39.76v-151.621c0-21.868 17.892-39.761 39.761-39.761h151.621c21.868 0 39.76 17.892 39.76 39.761v151.621c0 21.867-17.892 39.76-39.76 39.76z" fill="#5ee2c5"/></g><g><path d="m198.802 238.999h-151.621c-21.868 0-39.761-17.892-39.761-39.76v-151.62c0-21.868 17.892-39.761 39.761-39.761h151.621c21.868 0 39.76 17.892 39.76 39.761v151.621c0 21.867-17.892 39.759-39.76 39.759z" fill="#ff4343"/></g><g><path d="m498.966 307.144v151.624c0 21.865-17.898 39.763-39.763 39.763h-30.206c21.865 0 39.763-17.898 39.763-39.763v-151.624c0-21.865-17.898-39.754-39.763-39.754h30.206c21.865 0 39.763 17.888 39.763 39.754z" fill="#0077f0"/></g><g><path d="m238.559 307.144v151.624c0 21.865-17.888 39.763-39.754 39.763h-30.215c21.875 0 39.763-17.898 39.763-39.763v-151.624c0-21.865-17.888-39.754-39.763-39.754h30.216c21.865 0 39.753 17.888 39.753 39.754z" fill="#00d3b4"/></g><g><path d="m238.559 47.618v151.624c0 21.865-17.888 39.754-39.754 39.754h-30.215c21.875 0 39.763-17.888 39.763-39.754v-151.624c0-21.865-17.888-39.763-39.763-39.763h30.216c21.865-.001 39.753 17.897 39.753 39.763z" fill="#f72c2c"/></g><g><path d="m198.802 246.42h-96.985c-4.098 0-7.42-3.322-7.42-7.42s3.322-7.42 7.42-7.42h96.985c17.832 0 32.34-14.508 32.34-32.34v-151.621c0-17.832-14.508-32.34-32.34-32.34h-151.621c-17.832 0-32.34 14.508-32.34 32.34v151.62c0 17.833 14.508 32.34 32.34 32.34h20.667c4.098 0 7.42 3.322 7.42 7.42s-3.322 7.42-7.42 7.42h-20.667c-26.016 0-47.181-21.165-47.181-47.181v-151.619c0-26.016 21.165-47.181 47.181-47.181h151.621c26.016 0 47.181 21.165 47.181 47.181v151.621c0 26.015-21.166 47.18-47.181 47.18z"/></g><g><path d="m198.802 505.948h-151.621c-26.016 0-47.181-21.166-47.181-47.181v-151.62c0-26.016 21.165-47.181 47.181-47.181h151.621c26.016 0 47.181 21.166 47.181 47.181v151.621c0 26.014-21.166 47.18-47.181 47.18zm-151.621-231.142c-17.832 0-32.34 14.507-32.34 32.341v151.621c0 17.832 14.508 32.34 32.34 32.34h151.621c17.832 0 32.34-14.507 32.34-32.34v-151.621c0-17.833-14.508-32.341-32.34-32.341z"/></g><g><path d="m459.204 505.948h-151.621c-26.015 0-47.18-21.166-47.18-47.18v-36.884c0-4.099 3.322-7.42 7.42-7.42s7.42 3.322 7.42 7.42v36.884c0 17.832 14.507 32.34 32.34 32.34h151.621c17.833 0 32.341-14.507 32.341-32.34v-151.621c0-17.833-14.507-32.341-32.341-32.341h-151.621c-17.832 0-32.34 14.507-32.34 32.341v80.273c0 4.099-3.322 7.42-7.42 7.42s-7.42-3.322-7.42-7.42v-80.273c0-26.016 21.166-47.181 47.18-47.181h151.621c26.016 0 47.181 21.166 47.181 47.181v151.621c.001 26.014-21.165 47.18-47.181 47.18z"/></g><g><g><g><path d="m99.708 138.248-23.69-44.296v44.297c0 2.975-3.637 4.518-7.162 4.518-3.637 0-7.162-1.543-7.162-4.518v-71.515c0-3.085 3.525-4.518 7.162-4.518 5.178 0 7.273 1.102 10.688 7.604l21.267 41.101v-44.297c0-3.085 3.526-4.408 7.162-4.408 3.526 0 7.163 1.323 7.163 4.408v71.626c0 2.975-3.637 4.518-7.163 4.518-3.416-.001-6.391-1.103-8.265-4.52z"/></g><g><path d="m168.58 111.251v26.997c0 2.535-2.975 4.518-6.943 4.518-3.637 0-6.391-1.984-6.391-4.518v-3.196c-3.966 4.518-9.146 8.706-16.749 8.706-7.823 0-14.325-4.628-14.325-14.656 0-12.672 10.468-16.198 25.675-16.198h4.518v-1.433c0-4.738-2.424-10.137-9.697-10.137-8.485 0-9.917 3.416-12.562 3.416-3.195 0-4.848-3.857-4.848-7.052 0-4.518 9.808-7.935 17.631-7.935 17.188.002 23.691 10.359 23.691 21.488zm-14.216 9.036h-1.653c-7.383 0-14.325.772-14.325 6.943 0 4.077 2.535 5.951 5.84 5.951 4.517 0 10.137-5.179 10.137-10.579z"/></g></g><g><path d="m113.097 178.191h-49.469c-4.098 0-7.42-3.322-7.42-7.42s3.322-7.42 7.42-7.42h49.469c4.098 0 7.42 3.322 7.42 7.42s-3.322 7.42-7.42 7.42z"/></g><g><path d="m182.354 206.883h-118.726c-4.098 0-7.42-3.322-7.42-7.42s3.322-7.42 7.42-7.42h118.726c4.098 0 7.42 3.322 7.42 7.42s-3.322 7.42-7.42 7.42z"/></g></g><g><g><g><g><path d="m61.692 326.152c0-3.085 3.525-4.408 7.162-4.408 3.525 0 7.162 1.323 7.162 4.408v30.082l23.802-32.396c1.102-1.542 2.424-2.094 3.967-2.094 3.636 0 8.264 3.747 8.264 7.383 0 .771-.11 1.763-.882 2.754l-19.724 24.684 24.022 36.584c.551.772.771 1.653.771 2.535 0 3.526-4.408 7.162-8.596 7.162-1.873 0-3.746-.771-4.959-2.754l-20.716-31.405-5.95 7.494v21.597c0 2.975-3.637 4.518-7.162 4.518-3.637 0-7.162-1.542-7.162-4.518z"/></g></g></g><g><path d="m113.097 437.719h-49.469c-4.098 0-7.42-3.322-7.42-7.42 0-4.099 3.322-7.42 7.42-7.42h49.469c4.098 0 7.42 3.322 7.42 7.42s-3.322 7.42-7.42 7.42z"/></g><g><path d="m182.354 466.411h-118.726c-4.098 0-7.42-3.322-7.42-7.42 0-4.099 3.322-7.42 7.42-7.42h118.726c4.098 0 7.42 3.322 7.42 7.42s-3.322 7.42-7.42 7.42z"/></g></g><g><g><g><g><path d="m351.493 334.306c-7.384 0-11.57 4.077-11.57 12.672v30.743c0 8.595 4.186 12.672 11.791 12.672 10.027 0 10.908-7.162 11.238-11.791.221-3.416 3.307-4.518 7.052-4.518 4.959 0 7.273 1.433 7.273 7.052 0 13.333-10.908 21.818-26.336 21.818-13.884 0-25.344-6.832-25.344-25.234v-30.743c0-18.403 11.57-25.234 25.455-25.234 15.317 0 26.226 8.155 26.226 20.936 0 5.731-2.314 7.052-7.162 7.052-4.076 0-7.052-1.212-7.162-4.518-.223-3.413-.994-10.907-11.461-10.907z"/></g><g><path d="m427.195 370.78v26.997c0 2.535-2.975 4.518-6.943 4.518-3.637 0-6.391-1.984-6.391-4.518v-3.196c-3.966 4.518-9.146 8.706-16.749 8.706-7.823 0-14.325-4.628-14.325-14.656 0-12.672 10.468-16.198 25.675-16.198h4.518v-1.433c0-4.738-2.424-10.137-9.697-10.137-8.485 0-9.917 3.416-12.562 3.416-3.195 0-4.848-3.857-4.848-7.052 0-4.518 9.808-7.934 17.631-7.934 17.188 0 23.691 10.358 23.691 21.487zm-14.215 9.036h-1.653c-7.383 0-14.325.772-14.325 6.943 0 4.077 2.535 5.95 5.84 5.95 4.517 0 10.137-5.179 10.137-10.578z"/></g></g></g><g><path d="m377.773 437.719h-49.469c-4.099 0-7.42-3.322-7.42-7.42 0-4.099 3.322-7.42 7.42-7.42h49.469c4.099 0 7.42 3.322 7.42 7.42s-3.321 7.42-7.42 7.42z"/></g><g><path d="m447.03 466.411h-118.726c-4.099 0-7.42-3.322-7.42-7.42 0-4.099 3.322-7.42 7.42-7.42h118.726c4.099 0 7.42 3.322 7.42 7.42.001 4.098-3.321 7.42-7.42 7.42z"/></g></g></g></g></svg>