<svg id="Capa_1" enable-background="new 0 0 512 512" height="512" viewBox="0 0 512 512" width="512" xmlns="http://www.w3.org/2000/svg"><g><path d="m7.5 7.5h71v325.073h-71z" fill="#78d0b1"/><path d="m78.5 72.514h71v260.058h-71z" fill="#7398d3"/><path d="m149.5 202.543h71v130.029h-71z" fill="#e7a561"/><path d="m220.5 202.543h71v130.029h-71z" fill="#ffe07d"/><path d="m291.5 202.543h71v130.029h-71z" fill="#e7a561"/><path d="m362.5 137.529h71v195.044h-71z" fill="#dd5790"/><path d="m433.5 7.5h71v325.073h-71z" fill="#26457d"/><path d="m78.5 374.471h71v130.029h-71z" fill="#e7a561"/><path d="m149.5 374.471h71v130.029h-71z" fill="#ffe07d"/><path d="m220.5 374.471h71v130.029h-71z" fill="#e7a561"/><path d="m291.5 374.471h71v130.029h-71z" fill="#ffe07d"/><path d="m362.5 374.471h71v130.029h-71z" fill="#e7a561"/><g><path d="m433.5 366.971h-355c-4.143 0-7.5 3.357-7.5 7.5v130.029c0 4.143 3.357 7.5 7.5 7.5h161.199c4.143 0 7.5-3.357 7.5-7.5s-3.357-7.5-7.5-7.5h-11.699v-50.015h56v50.015h-14.313c-4.143 0-7.5 3.357-7.5 7.5s3.357 7.5 7.5 7.5h163.813c4.143 0 7.5-3.357 7.5-7.5v-130.029c0-4.143-3.357-7.5-7.5-7.5zm-7.5 65.014h-56v-50.015h56zm-71 0h-56v-50.015h56zm-71 0h-56v-50.015h56zm-71 0h-56v-50.015h56zm-71-50.014v50.015h-56v-50.015zm-56 65.014h56v50.015h-56zm71 0h56v50.015h-56zm142 0h56v50.015h-56zm71 50.015v-50.015h56v50.015z"/><path d="m504.5 97.528c4.143 0 7.5-3.357 7.5-7.5v-82.528c0-4.143-3.357-7.5-7.5-7.5h-71c-4.143 0-7.5 3.357-7.5 7.5v122.528h-63.5c-4.143 0-7.5 3.357-7.5 7.5v57.515h-198v-122.528c0-4.143-3.357-7.5-7.5-7.5h-63.5v-57.515c0-4.143-3.357-7.5-7.5-7.5h-20.507c-4.143 0-7.5 3.357-7.5 7.5s3.357 7.5 7.5 7.5h13.007v50.015h-56v-50.015h13.006c4.143 0 7.5-3.357 7.5-7.5s-3.358-7.5-7.5-7.5h-20.506c-4.143 0-7.5 3.357-7.5 7.5v325.072c0 4.143 3.357 7.5 7.5 7.5h497c4.143 0 7.5-3.357 7.5-7.5v-212.557c0-4.143-3.357-7.5-7.5-7.5s-7.5 3.357-7.5 7.5v10.014h-56v-50.014h56v10.014c0 4.142 3.357 7.499 7.5 7.499zm-7.5 162.53h-56v-50.015h56zm-127-50.015h56v50.015h-56zm56-65.015v50.015h-56v-50.015zm-71 115.03h-56v-50.015h56zm-71 0h-56v-50.015h56zm-71 0h-56v-50.015h56zm-127-65.015v-50.015h56v50.015zm-15 0h-56v-50.015h56zm-56 15h56v50.015h-56zm71 0h56v50.015h-56zm56-80.015h-56v-50.013h56zm-71-50.013v50.014h-56v-50.014zm-56 195.043h56v50.015h-56zm71 0h56v50.015h-56zm71 0h56v50.015h-56zm71 0h56v50.015h-56zm71 0h56v50.015h-56zm71 0h56v50.015h-56zm71 50.014v-50.015h56v50.015zm56-130.029h-56v-50.015h56zm-56-130.028v-50.015h56v50.015z"/></g></g></svg>