<svg id="Capa_1" enable-background="new 0 0 512 512" height="512" viewBox="0 0 512 512" width="512" xmlns="http://www.w3.org/2000/svg"><g><path d="m261.625 22c-135.31 0-245 109.69-245 245s109.69 245 245 245c44.952 0 87.069-12.118 123.284-33.248l.068-.998c-64.478-4.384-114.985-58.476-114.985-123.146 0-68.066 55.376-123.442 123.442-123.442 23.252 0 45.918 6.529 65.549 18.883 19.098 12.018 34.56 28.997 44.713 49.102l.892-.451c1.341-10.378 2.038-20.957 2.038-31.7-.001-135.31-109.691-245-245.001-245z" fill="#ffe5c2"/><g><path d="m269.991 354.608c0-68.066 55.376-123.442 123.442-123.442 15.159 0 30.063 2.793 44.045 8.148-6.184-39.595-25.415-74.866-53.164-101.274-6.791 61.691-59.219 109.844-122.689 109.844s-115.898-48.153-122.689-109.844c-27.744 26.403-46.973 61.667-53.161 101.254 13.686-5.245 28.533-8.128 44.042-8.128 68.066 0 123.442 55.376 123.442 123.442 0 33.03-13.041 63.07-34.243 85.246 13.654 3.354 27.921 5.146 42.61 5.146 14.714 0 29.006-1.798 42.681-5.164-21.277-22.262-34.316-52.378-34.316-85.228z" fill="#fed2a4"/></g><g><g><circle cx="129.817" cy="354.608" fill="#c8effe" r="100.442"/><path d="m122.594 254.428c-52.025 3.715-93.219 47.225-93.219 100.18s41.194 96.465 93.219 100.18c-36.737-18.359-61.969-56.318-61.969-100.18s25.232-81.821 61.969-100.18z" fill="#99e6fc"/><g><path d="m129.817 479.05c-68.618 0-124.442-55.824-124.442-124.442s55.824-124.442 124.442-124.442 124.442 55.824 124.442 124.442-55.824 124.442-124.442 124.442zm0-223.884c-54.833 0-99.442 44.609-99.442 99.442s44.609 99.442 99.442 99.442 99.442-44.609 99.442-99.442-44.61-99.442-99.442-99.442z" fill="#6354b1"/></g><g><path d="m84.867 443.295c-32.307-16.441-54.492-50.021-54.492-88.687s22.184-72.246 54.492-88.687c17.703-17.409 40.574-29.574 66.075-33.953-6.869-1.18-13.925-1.802-21.125-1.802-68.618 0-124.442 55.824-124.442 124.442s55.824 124.442 124.442 124.442c7.2 0 14.256-.622 21.125-1.802-25.501-4.379-48.372-16.544-66.075-33.953z" fill="#54469c"/></g><g><g><circle cx="129.817" cy="313.282" fill="#01d0fb" r="23.932"/></g><path d="m122.76 313.282c0-10.247 6.442-18.985 15.495-22.398-2.625-.989-5.467-1.535-8.438-1.535-13.217 0-23.932 10.715-23.932 23.932 0 13.218 10.715 23.932 23.932 23.932 2.971 0 5.813-.545 8.438-1.535-9.053-3.41-15.495-12.149-15.495-22.396z" fill="#01c0fa"/><g><g><circle cx="84.268" cy="379.675" fill="#01d0fb" r="23.932"/></g><path d="m76.76 379.675c0-10.332 6.548-19.135 15.72-22.486-2.561-.936-5.327-1.447-8.212-1.447-13.217 0-23.932 10.715-23.932 23.932 0 13.218 10.715 23.932 23.932 23.932 2.885 0 5.651-.511 8.212-1.447-9.172-3.349-15.72-12.151-15.72-22.484z" fill="#01c0fa"/><g><circle cx="175.366" cy="379.675" fill="#01d0fb" r="23.932"/></g><path d="m167.76 379.675c0-10.35 6.571-19.165 15.769-22.502-2.548-.924-5.296-1.43-8.163-1.43-13.218 0-23.932 10.715-23.932 23.932 0 13.218 10.715 23.932 23.932 23.932 2.867 0 5.616-.506 8.163-1.43-9.198-3.337-15.769-12.151-15.769-22.502z" fill="#01c0fa"/></g></g></g><g><path d="m393.433 254.166c-55.384 0-100.442 45.058-100.442 100.442s45.058 100.442 100.442 100.442c10.749 0 21.106-1.704 30.824-4.845 31.31-27.813 55.437-63.522 69.262-104.013-4.289-51.46-47.536-92.026-100.086-92.026z" fill="#c8effe"/><g><path d="m319.625 354.608c0-43.406 24.709-81.034 60.825-99.604-49.273 6.387-87.459 48.619-87.459 99.604s38.186 93.217 87.46 99.604c-36.117-18.57-60.826-56.198-60.826-99.604z" fill="#99e6fc"/></g><path d="m393.433 454.05c-54.833 0-99.442-44.609-99.442-99.442s44.609-99.442 99.442-99.442c52.815 0 96.138 41.388 99.255 93.434 5.63-15.943 9.669-32.636 11.899-49.899-20.511-40.615-62.631-68.534-111.154-68.534-68.618 0-124.442 55.824-124.442 124.442 0 65.752 51.261 119.748 115.918 124.144 14.82-8.647 28.656-18.796 41.286-30.254-10.264 3.591-21.288 5.551-32.762 5.551z" fill="#0ed290"/><path d="m327.412 280.314c19.523-26.15 49.07-44.393 82.896-48.999-5.52-.752-11.152-1.149-16.875-1.149-68.618 0-124.442 55.824-124.442 124.442 0 65.752 51.261 119.748 115.918 124.144 2.568-1.498 5.107-3.041 7.614-4.629-26.334-7.647-49.097-23.77-65.111-45.221-20.49-18.228-33.421-44.777-33.421-74.294s12.932-56.066 33.421-74.294z" fill="#00c285"/><g><g><path d="m389.899 283.942-24.349 24.349c-1.953 1.953-1.953 5.118 0 7.071l24.349 24.349c1.953 1.953 5.118 1.953 7.071 0l24.349-24.349c1.953-1.953 1.953-5.118 0-7.071l-24.349-24.349c-1.952-1.953-5.118-1.953-7.071 0z" fill="#fe5694"/></g><path d="m382.392 315.361c-1.953-1.953-1.953-5.118 0-7.071l19.463-19.463-4.885-4.885c-1.953-1.953-5.118-1.953-7.071 0l-24.349 24.349c-1.953 1.953-1.953 5.118 0 7.071l24.349 24.349c1.953 1.953 5.118 1.953 7.071 0l4.885-4.885z" fill="#fd3581"/><g><g><path d="m338.325 348.116-24.349 24.349c-1.953 1.953-1.953 5.118 0 7.071l24.349 24.349c1.953 1.953 5.118 1.953 7.071 0l24.349-24.349c1.953-1.953 1.953-5.118 0-7.071l-24.349-24.349c-1.952-1.953-5.118-1.953-7.071 0z" fill="#fe5694"/></g><path d="m330.392 379.536c-1.953-1.953-1.953-5.118 0-7.071l19.676-19.676-4.672-4.672c-1.953-1.953-5.118-1.953-7.071 0l-24.349 24.349c-1.953 1.953-1.953 5.118 0 7.071l24.349 24.349c1.953 1.953 5.118 1.953 7.071 0l4.672-4.672z" fill="#fd3581"/><g><path d="m441.474 348.214-24.349 24.349c-1.953 1.953-1.953 5.118 0 7.071l24.349 24.349c1.953 1.953 5.118 1.953 7.071 0l24.349-24.349c1.953-1.953 1.953-5.118 0-7.071l-24.349-24.349c-1.953-1.953-5.119-1.953-7.071 0z" fill="#fe5694"/></g><path d="m434.089 379.633c-1.953-1.953-1.953-5.118 0-7.071l19.402-19.402-4.947-4.947c-1.953-1.953-5.118-1.953-7.071 0l-24.349 24.349c-1.953 1.953-1.953 5.118 0 7.071l24.349 24.349c1.953 1.953 5.118 1.953 7.071 0l4.947-4.947z" fill="#fd3581"/></g></g></g></g><g><g><circle cx="261.625" cy="124.442" fill="#fff" r="100.442"/><path d="m242.575 25.82c-46.305 8.927-81.392 49.751-81.392 98.622s35.087 89.695 81.392 98.622c-35.094-18.896-58.95-55.971-58.95-98.622s23.856-79.726 58.95-98.622z" fill="#f2fbff"/><g><g><path d="m261.625 248.884c-68.618 0-124.442-55.824-124.442-124.442s55.824-124.442 124.442-124.442 124.442 55.824 124.442 124.442-55.824 124.442-124.442 124.442zm0-223.884c-54.833 0-99.442 44.609-99.442 99.442s44.609 99.442 99.442 99.442 99.442-44.609 99.442-99.442-44.609-99.442-99.442-99.442z" fill="#01c0fa"/></g></g><g><path d="m195.059 198.252c-20.175-18.212-32.876-44.555-32.876-73.81s12.701-55.598 32.876-73.81c19.537-26.432 49.273-44.884 83.345-49.497-5.49-.743-11.089-1.135-16.779-1.135-68.618 0-124.442 55.824-124.442 124.442s55.824 124.442 124.442 124.442c5.69 0 11.289-.392 16.779-1.135-34.072-4.613-63.808-23.065-83.345-49.497z" fill="#08a9f1"/></g></g><g><g><path d="m215.767 116.959-27.784 48.124c-1.155 2 .289 4.5 2.598 4.5h55.568c2.309 0 3.753-2.5 2.598-4.5l-27.784-48.124c-1.154-2-4.041-2-5.196 0z" fill="#fe9901"/></g><path d="m204.454 165.082 22.147-38.359-5.638-9.764c-1.155-2-4.041-2-5.196 0l-27.784 48.124c-1.155 2 .289 4.5 2.598 4.5h16.471c-2.309-.001-3.753-2.501-2.598-4.501z" fill="#fb8801"/><g><path d="m302.287 116.959-27.784 48.124c-1.155 2 .289 4.5 2.598 4.5h55.568c2.309 0 3.753-2.5 2.598-4.5l-27.784-48.124c-1.155-2-4.042-2-5.196 0z" fill="#fe9901"/></g><path d="m291.454 165.082 21.906-37.943-5.878-10.18c-1.155-2-4.041-2-5.196 0l-27.784 48.124c-1.155 2 .289 4.5 2.598 4.5h16.952c-2.309-.001-3.753-2.501-2.598-4.501z" fill="#fb8801"/></g><g><path d="m264.223 110.124 27.784-48.124c1.155-2-.289-4.5-2.598-4.5h-55.568c-2.309 0-3.753 2.5-2.598 4.5l27.784 48.124c1.155 2 4.041 2 5.196 0z" fill="#fe9901"/></g><path d="m248.031 62c-1.155-2 .289-4.5 2.598-4.5h-16.789c-2.309 0-3.753 2.5-2.598 4.5l27.784 48.124c1.155 2 4.042 2 5.196 0l5.796-10.039z" fill="#fb8801"/></g></g></svg>