<svg id="Capa_1" enable-background="new 0 0 512 512" height="512" viewBox="0 0 512 512" width="512" xmlns="http://www.w3.org/2000/svg"><g><path d="m319.72 235.741v-43.461h-40.977c0 11.786-9.554 21.34-21.34 21.34s-21.34-9.554-21.34-21.34h-45.946v43.461c11.786 0 21.34 9.554 21.34 21.34s-9.554 21.34-21.34 21.34v43.461h45.946c0 11.786 9.554 21.34 21.34 21.34s21.34-9.554 21.34-21.34h40.977v-43.461c11.786 0 21.34-9.554 21.34-21.34s-9.554-21.34-21.34-21.34z" fill="#97d729"/><g><g><path d="m190.118 192.28v43.461c11.786 0 21.34 9.554 21.34 21.34s-9.554 21.34-21.34 21.34v43.461h33.94v-129.602z" fill="#8bc727"/></g></g><g><g><path d="m190.118 106.139v-43.462h-110.355c-10.63 0-19.248 8.618-19.248 19.248v110.355h43.461c0 11.786 9.554 21.34 21.34 21.34s21.34-9.554 21.34-21.34h43.461v-43.461c-11.786 0-21.34-9.554-21.34-21.34.001-11.786 9.555-21.34 21.341-21.34z" fill="#0593fc"/></g><g><g><path d="m113.306 62.677h-33.543c-10.63 0-19.248 8.618-19.248 19.248v110.355h33.542v-110.355c.001-10.63 8.618-19.248 19.249-19.248z" fill="#0182fc"/></g></g><g><path d="m168.778 127.479c0 11.786 9.554 21.34 21.34 21.34v-42.68c-11.786 0-21.34 9.554-21.34 21.34z" fill="#fff"/></g><g><path d="m374.898 12.5v38.461c11.786 0 21.34 9.554 21.34 21.34s-9.554 21.34-21.34 21.34v38.461c0 2.761 2.239 5 5 5h39.383c0 11.786 9.554 21.34 21.34 21.34s21.34-9.554 21.34-21.34h37.54c2.761 0 5-2.239 5-5v-105.354c0-10.63-8.618-19.248-19.248-19.248h-105.355c-2.762 0-5 2.239-5 5z" fill="#fd4755"/></g><g><path d="m408.398 132.103v-119.603c0-2.761 2.239-5 5-5h-33.5c-2.761 0-5 2.239-5 5v38.461c11.786 0 21.34 9.554 21.34 21.34s-9.554 21.34-21.34 21.34v38.461c0 2.761 2.239 5 5 5h33.5c-2.762.001-5-2.238-5-4.999z" fill="#fb2b3a"/></g></g><g><g><path d="m190.118 235.741v-43.461h-43.461c0 11.786-9.554 21.34-21.34 21.34s-21.34-9.554-21.34-21.34h-43.462v124.602c0 2.761 2.239 5 5 5h124.602v-43.461c11.786 0 21.34-9.554 21.34-21.34.001-11.786-9.553-21.34-21.339-21.34z" fill="#ffd15b"/></g><g><g><path d="m94.058 316.882v-124.602h-33.543v124.602c0 2.761 2.239 5 5 5h33.542c-2.761 0-4.999-2.238-4.999-5z" fill="#fdb441"/></g></g><path d="m444.323 192.28h-37.54c0 11.786-9.554 21.34-21.34 21.34s-21.34-9.554-21.34-21.34h-44.383v43.461c11.786 0 21.34 9.554 21.34 21.34s-9.554 21.34-21.34 21.34v43.461h44.383c0-11.786 9.554-21.34 21.34-21.34s21.34 9.554 21.34 21.34h42.54v-124.602c0-2.762-2.239-5-5-5z" fill="#6e61b6"/><g><g><path d="m319.72 192.28v43.461c11.786 0 21.34 9.554 21.34 21.34s-9.554 21.34-21.34 21.34v43.461h33.677v-129.602z" fill="#6354b1"/></g></g></g><g><g><path d="m137.102 416.155v-36.257c0-2.761-2.239-5-5-5h-38.461c0-11.786-9.554-21.34-21.34-21.34s-21.34 9.554-21.34 21.34h-38.461c-2.761 0-5 2.239-5 5v105.355c0 10.63 8.618 19.248 19.248 19.248h105.355c2.761 0 5-2.239 5-5v-40.665c11.786 0 21.34-9.554 21.34-21.34-.001-11.787-9.555-21.341-21.341-21.341z" fill="#fe7701"/></g></g><g><g><path d="m41.058 485.252v-105.354c0-2.761 2.239-5 5-5h-33.558c-2.761 0-5 2.239-5 5v105.355c0 10.63 8.618 19.248 19.248 19.248h33.558c-10.631-.001-19.248-8.619-19.248-19.249z" fill="#f46700"/></g></g><g><path d="m319.72 106.139v-38.462c0-2.761-2.239-5-5-5h-124.602v43.461c-11.786 0-21.34 9.554-21.34 21.34s9.554 21.34 21.34 21.34v43.461h45.946c0 11.786 9.554 21.34 21.34 21.34s21.34-9.554 21.34-21.34h40.977v-43.461c11.786 0 21.34-9.554 21.34-21.34-.001-11.785-9.555-21.339-21.341-21.339z" fill="#fe7701"/></g><g><path d="m319.72 106.139v-38.462c0-2.761-2.239-5-5-5h-124.602v43.461c-11.786 0-21.34 9.554-21.34 21.34s9.554 21.34 21.34 21.34v43.461h45.946c0 11.786 9.554 21.34 21.34 21.34s21.34-9.554 21.34-21.34h40.977v-43.461c11.786 0 21.34-9.554 21.34-21.34-.001-11.785-9.555-21.339-21.341-21.339z" fill="#fe7701"/></g><g><g><path d="m190.118 62.677v43.461c-11.786 0-21.34 9.554-21.34 21.34s9.554 21.34 21.34 21.34v43.461h33.94v-129.602z" fill="#f46700"/></g></g><g><path d="m319.72 363.139v-41.257h-40.977c0 11.786-9.554 21.34-21.34 21.34s-21.34-9.554-21.34-21.34h-45.946v41.257c11.786 0 21.34 9.554 21.34 21.34s-9.554 21.34-21.34 21.34v40.665c0 2.761 2.239 5 5 5h124.603v-45.665c11.786 0 21.34-9.554 21.34-21.34s-9.554-21.34-21.34-21.34z" fill="#0593fc"/></g><g><g><path d="m224.058 446.485v-124.603h-33.94v41.257c11.786 0 21.34 9.554 21.34 21.34s-9.554 21.34-21.34 21.34v40.665c0 2.761 2.239 5 5 5h33.94c-2.762.001-5-2.238-5-4.999z" fill="#0182fc"/></g></g><g><path d="m406.783 321.882c0-11.786-9.554-21.34-21.34-21.34s-21.34 9.554-21.34 21.34h-44.383v41.257c11.786 0 21.34 9.554 21.34 21.34s-9.554 21.34-21.34 21.34v45.665h110.355c10.63 0 19.248-8.618 19.248-19.248v-110.354z" fill="#ffd15b"/></g><g><path d="m319.72 321.882v41.257c11.786 0 21.34 9.554 21.34 21.34s-9.554 21.34-21.34 21.34v45.665h33.677v-129.602z" fill="#fdb441"/></g><g><path d="m485.252 0h-105.355c-6.893 0-12.5 5.607-12.5 12.5v38.461c0 4.142 3.358 7.5 7.5 7.5 7.631 0 13.84 6.208 13.84 13.84s-6.208 13.84-13.84 13.84c-4.142 0-7.5 3.358-7.5 7.5v38.461c0 6.893 5.607 12.5 12.5 12.5h32.872c3.31 12.277 14.542 21.34 27.851 21.34s24.542-9.062 27.851-21.34h31.029c6.893 0 12.5-5.607 12.5-12.5v-105.354c0-14.749-11.999-26.748-26.748-26.748zm11.748 129.603h-35.04c-4.142 0-7.5 3.358-7.5 7.5 0 7.631-6.208 13.84-13.84 13.84s-13.84-6.208-13.84-13.84c0-4.142-3.358-7.5-7.5-7.5h-36.883v-29.45c12.277-3.31 21.34-14.542 21.34-27.851s-9.062-24.542-21.34-27.851v-29.451h102.854c6.479 0 11.749 5.27 11.749 11.748z"/><path d="m144.603 409.644v-29.746c0-6.893-5.607-12.5-12.5-12.5h-31.95c-3.31-12.277-14.542-21.34-27.851-21.34s-24.542 9.062-27.851 21.34h-31.951c-6.893 0-12.5 5.607-12.5 12.5v105.354c0 14.749 11.999 26.748 26.748 26.748h105.354c6.893 0 12.5-5.607 12.5-12.5v-34.154c12.277-3.31 21.34-14.542 21.34-27.851s-9.062-24.542-21.339-27.851zm-7.5 41.69c-4.142 0-7.5 3.358-7.5 7.5v38.166h-102.855c-6.478 0-11.748-5.27-11.748-11.748v-102.855h35.961c4.142 0 7.5-3.358 7.5-7.5 0-7.631 6.208-13.84 13.84-13.84s13.84 6.208 13.84 13.84c0 4.142 3.358 7.5 7.5 7.5h35.961v33.757c0 4.142 3.358 7.5 7.5 7.5 7.631 0 13.84 6.208 13.84 13.84s-6.208 13.84-13.839 13.84z"/><path d="m444.323 184.78h-37.54c-4.142 0-7.5 3.358-7.5 7.5 0 7.631-6.208 13.84-13.84 13.84s-13.84-6.208-13.84-13.84c0-4.142-3.358-7.5-7.5-7.5h-36.883v-29.45c12.277-3.31 21.34-14.542 21.34-27.851s-9.062-24.542-21.34-27.851v-31.95c0-6.893-5.607-12.5-12.5-12.5h-165.72c-4.142 0-7.5 3.358-7.5 7.5s3.358 7.5 7.5 7.5h33.618v29.45c-12.277 3.31-21.34 14.542-21.34 27.851s9.062 24.542 21.34 27.851v29.45h-35.961c-4.142 0-7.5 3.358-7.5 7.5 0 7.631-6.209 13.84-13.84 13.84s-13.84-6.208-13.84-13.84c0-4.142-3.358-7.5-7.5-7.5h-35.962v-102.855c0-6.478 5.27-11.748 11.748-11.748h34.237c4.142 0 7.5-3.358 7.5-7.5s-3.358-7.5-7.5-7.5h-34.237c-14.749 0-26.748 11.999-26.748 26.748v234.957c0 6.893 5.607 12.5 12.5 12.5h117.103v33.757c0 4.142 3.358 7.5 7.5 7.5 7.631 0 13.84 6.208 13.84 13.84s-6.208 13.84-13.84 13.84c-4.142 0-7.5 3.358-7.5 7.5v40.666c0 6.893 5.607 12.5 12.5 12.5h55.882c4.142 0 7.5-3.358 7.5-7.5s-3.358-7.5-7.5-7.5h-53.382v-31.654c12.277-3.31 21.34-14.542 21.34-27.851s-9.062-24.542-21.34-27.851v-27.246h31.935c3.31 12.277 14.542 21.34 27.852 21.34s24.542-9.062 27.851-21.34h26.965v33.757c0 4.142 3.358 7.5 7.5 7.5 7.631 0 13.84 6.208 13.84 13.84s-6.208 13.84-13.84 13.84c-4.142 0-7.5 3.358-7.5 7.5v38.166h-26.221c-4.142 0-7.5 3.358-7.5 7.5s3.358 7.5 7.5 7.5h144.075c14.749 0 26.748-11.999 26.748-26.748v-110.356-61.882c0-4.142-3.358-7.5-7.5-7.5s-7.5 3.358-7.5 7.5v54.382h-28.528c-3.31-12.277-14.542-21.34-27.851-21.34s-24.542 9.062-27.852 21.34h-30.372v-29.45c12.277-3.31 21.34-14.542 21.34-27.851s-9.062-24.542-21.34-27.851v-29.45h30.372c3.31 12.277 14.542 21.34 27.851 21.34s24.542-9.062 27.851-21.34h28.528v25.22c0 4.142 3.358 7.5 7.5 7.5s7.5-3.358 7.5-7.5v-27.72c.001-6.893-5.607-12.5-12.499-12.5zm-254.205 86.141c-4.142 0-7.5 3.358-7.5 7.5v35.961h-114.603v-114.602h29.45c3.31 12.277 14.542 21.34 27.851 21.34s24.542-9.062 27.852-21.34h29.45v35.961c0 4.142 3.358 7.5 7.5 7.5 7.631 0 13.84 6.208 13.84 13.84s-6.209 13.84-13.84 13.84zm173.985 58.461c4.142 0 7.5-3.358 7.5-7.5 0-7.631 6.209-13.84 13.84-13.84s13.84 6.208 13.84 13.84c0 4.142 3.358 7.5 7.5 7.5h35.04v102.854c0 6.478-5.27 11.748-11.748 11.748h-102.855v-31.654c12.277-3.31 21.34-14.542 21.34-27.851s-9.062-24.542-21.34-27.851v-27.246zm-30.543-72.301c0 7.631-6.208 13.84-13.84 13.84-4.142 0-7.5 3.358-7.5 7.5v35.961h-33.477c-4.142 0-7.5 3.358-7.5 7.5 0 7.631-6.208 13.84-13.84 13.84s-13.84-6.208-13.84-13.84c0-4.142-3.358-7.5-7.5-7.5h-38.446v-29.45c12.277-3.31 21.34-14.542 21.34-27.851s-9.062-24.542-21.34-27.851v-29.45h31.935c3.31 12.277 14.542 21.34 27.852 21.34s24.542-9.062 27.851-21.34h26.965v35.961c0 4.142 3.358 7.5 7.5 7.5 7.632 0 13.84 6.209 13.84 13.84zm-13.84-115.763c-4.142 0-7.5 3.358-7.5 7.5v35.961h-33.477c-4.142 0-7.5 3.358-7.5 7.5 0 7.631-6.208 13.84-13.84 13.84s-13.84-6.208-13.84-13.84c0-4.142-3.358-7.5-7.5-7.5h-38.446v-35.961c0-4.142-3.358-7.5-7.5-7.5-7.631 0-13.84-6.208-13.84-13.84s6.208-13.84 13.84-13.84c4.142 0 7.5-3.358 7.5-7.5v-35.961h114.603v35.961c0 4.142 3.358 7.5 7.5 7.5 7.631 0 13.84 6.208 13.84 13.84s-6.208 13.84-13.84 13.84z"/></g></g></svg>